# xmcd
#
# Track frame offsets: 
#        225
#        25908
#        48196
#        66268
#        88885
#        112209
#        132210
#        156656
#        176741
#        196142
#        212616
#        229375
#        253855
#
# Disc length: 3610 seconds
#
# Revision: 0
# Processed by: cddbd v1.5.2PL0 Copyright (c) Steve Scherf et al.
# Submitted via: ExactAudioCopyFreeDBPlugin 1.0
#
DISCID=c40e170d
DTITLE=Wolfsheart - Wolf Moon Rising
DYEAR=2012
DGENRE=Native American
TTITLE0=Breath Of My Soul
TTITLE1=Wolf Paths inDeep Snow
TTITLE2=Wings Of Love And Peace
TTITLE3=A Christmas Lullaby
TTITLE4=Time Of Change
TTITLE5=Under The Spell Of Moonlight
TTITLE6=Come To The Fire
TTITLE7=Dance Of The Northern Lights
TTITLE8=Soyala - The Longest Nicht
TTITLE9=A Winter's Tale
TTITLE10=Snow Falling In Silence
TTITLE11=On Thin Ice
TTITLE12=Wings Of Love And Peace
EXTD=
EXTT0=
EXTT1=
EXTT2=
EXTT3=
EXTT4=
EXTT5=
EXTT6=
EXTT7=
EXTT8=
EXTT9=
EXTT10=
EXTT11=
EXTT12=
PLAYORDER=
